<svg xmlns="http://www.w3.org/2000/svg" width="64" height="64" viewBox="0 0 64 64" fill="none">
<mask id="mask0_13419_37" style="mask-type:alpha" maskUnits="userSpaceOnUse" x="0" y="0" width="64" height="64">
<rect width="64" height="64" fill="#C4C4C4"/>
</mask>
<g mask="url(#mask0_13419_37)">
<path d="M53.9571 51.1996L22.5479 59.5688C18.3141 60.6519 13.9818 58.1904 12.8987 53.9565L4.52945 22.5473C3.44638 18.3135 5.90791 13.9811 10.1418 12.8981L41.551 4.52884C45.7848 3.44577 50.1171 5.9073 51.2002 10.1411L59.5694 41.5504C60.6525 45.6857 58.191 50.0181 53.9571 51.1996Z" fill="#D7DBF5"/>
<path d="M35.7416 51.1991V42.1406C35.7416 41.0575 35.1508 39.9745 34.1662 39.4822L24.9108 34.1652C23.6308 33.3775 21.957 33.3775 20.677 34.1652L11.4216 39.4822C10.437 40.0729 9.84619 41.0575 9.84619 42.1406V42.7314L12.8985 54.0544C13.0954 54.7437 13.2923 55.3344 13.5877 55.8267L20.677 59.8637C21.2677 59.8637 21.957 59.7652 22.5477 59.5683L27.8647 58.1898L33.5754 54.8421C34.9539 54.0544 35.7416 52.676 35.7416 51.1991Z" fill="#545D94"/>
<path d="M20.6768 34.067C21.9568 33.2793 23.6306 33.2793 24.9106 34.067L34.166 39.3839C35.1506 39.9746 35.7414 40.9593 35.7414 42.0423V51.1008C35.7414 52.5777 34.9537 54.0546 33.5752 54.7439L20.6768 34.067Z" fill="#8C95CB"/>
<path d="M22.8433 48.836C22.8433 48.1468 22.4495 47.556 21.9572 47.2606L11.5202 41.2545C10.831 40.8606 9.94482 41.3529 9.94482 42.1406V42.7314L12.9971 54.0545C13.1941 54.7437 13.391 55.3345 13.6864 55.8268L20.7756 59.8637C21.3664 59.8637 21.9572 59.7652 22.6464 59.5683C22.8433 59.3714 22.9418 59.076 22.9418 58.6822V48.836H22.8433Z" fill="#545D94"/>
<path d="M11.4218 39.384L21.2679 33.6732C22.1541 33.1809 23.3356 33.1809 24.2218 33.6732L34.0679 39.384C34.7571 39.7778 34.7571 40.8609 34.0679 41.2548L23.631 47.2609C23.0402 47.5563 22.351 47.5563 21.7602 47.2609L11.3233 41.2548C10.7326 40.8609 10.7326 39.7778 11.4218 39.384Z" fill="#C8C8FA"/>
<path d="M39.7786 8.95923L13.7848 17.1315L12.7017 24.4177L8.46787 21.9561L7.68018 30.1285L11.5202 32.3931L11.1263 35.0515L13.5879 33.6731L26.9786 41.4515L31.114 35.2484L20.9725 29.3408L26.0925 26.3869C28.1602 25.2054 30.7202 25.2054 32.7879 26.3869L46.0802 34.3623L51.2986 23.1377L39.7786 8.95923Z" fill="#141938"/>
<path d="M15.5569 29.5379C21.6615 17.9195 32.4922 11.6179 39.8769 15.4579C45.0953 18.2149 47.163 25.3041 45.6861 33.3779C45.5876 34.1656 46.3753 34.6579 46.9661 34.3625L52.4799 31.2118C53.8584 30.4241 55.0399 29.341 55.8276 27.9626L51.1015 10.141C50.0184 5.90718 45.5876 3.44565 41.4522 4.52872L10.043 12.8979C5.80916 13.981 3.34762 18.4118 4.4307 22.5472L10.9292 46.8671C10.8307 41.7472 12.4061 35.5441 15.5569 29.5379Z" fill="#FF858D"/>
<path d="M30.228 30.4242L30.5234 29.9319L29.1449 29.1442C29.0464 29.0457 28.948 28.9472 28.7511 28.9472C26.4864 27.7657 23.0403 29.7349 21.1695 33.378C19.2987 36.9226 19.2003 40.8611 21.3664 42.0426L23.1387 43.0272L23.5326 42.338C25.6003 42.0426 28.0618 40.2703 29.4403 37.6118C30.9172 35.0518 31.1141 32.1965 30.228 30.4242Z" fill="#141938"/>
<path d="M30.5231 29.9319C28.2585 28.7503 24.8123 30.7195 22.9416 34.3626C21.0708 38.0057 20.9723 41.9441 23.2369 43.1257C25.5016 44.3072 29.3416 42.338 31.2124 38.6949C33.0831 35.0518 32.8862 31.1134 30.5231 29.9319Z" fill="#545D94"/>
<path d="M30.9167 34.5597L29.1444 33.5751C27.9629 32.9843 26.289 33.9689 25.4029 35.7412C24.4182 37.5135 24.4182 39.4828 25.5013 40.0735L27.2736 41.0582L28.1598 39.4828C28.6521 39.0889 29.1444 38.4982 29.5382 37.8089C29.8336 37.2182 30.0305 36.5289 30.129 35.9381L30.9167 34.5597Z" fill="#FAAF37"/>
<path d="M30.9174 34.5597C29.7358 33.9689 28.062 34.9535 27.1758 36.7258C26.1912 38.4981 26.1912 40.4673 27.2743 41.058C28.4558 41.6488 30.3266 40.6642 31.2128 38.8919C32.0989 37.1196 32.0005 35.2489 30.9174 34.5597Z" fill="#FFCA61"/>
<path d="M29.5381 35.1506C29.3412 35.0522 29.0458 35.2491 28.8489 35.5445C28.6519 35.8398 28.6519 36.2337 28.8489 36.3321C29.0458 36.4306 29.4396 36.2337 29.6366 35.9383C29.735 35.6429 29.735 35.2491 29.5381 35.1506Z" fill="#545D94"/>
<path d="M29.5381 39.4824C29.3412 39.3839 29.0458 39.5809 28.8489 39.8762C28.6519 40.1716 28.6519 40.5655 28.8489 40.664C29.0458 40.7624 29.4396 40.5655 29.6366 40.2701C29.735 39.9747 29.735 39.5809 29.5381 39.4824Z" fill="#545D94"/>
<path d="M31.5078 36.3315C31.3109 36.2331 31.0155 36.43 30.8186 36.7254C30.6217 37.0208 30.6217 37.4147 30.8186 37.5131C31.0155 37.6116 31.4094 37.4147 31.6063 37.1193C31.8032 36.8239 31.7047 36.43 31.5078 36.3315Z" fill="#545D94"/>
<path d="M27.6675 38.5967C27.4706 38.4982 27.1752 38.6951 26.9783 38.9905C26.7813 39.2859 26.7813 39.6798 26.9783 39.7782C27.1752 39.8767 27.569 39.6798 27.766 39.3844C27.9629 39.089 27.8644 38.6951 27.6675 38.5967Z" fill="#545D94"/>
<path d="M22.8434 57.5011L25.0096 59.8642C23.7296 60.6519 22.0557 60.6519 20.7757 59.8642L19.2988 59.0765L22.8434 57.5011Z" fill="#545D94"/>
<path d="M34.1663 41.2546L23.7294 47.2607C23.1386 47.5561 22.8433 48.1469 22.8433 48.8361V58.7807C22.8433 59.8638 23.9263 60.4545 24.8125 59.9622L34.8555 54.153C35.4463 53.8576 35.7417 53.2669 35.7417 52.5776V42.1407C35.7417 41.353 34.8555 40.8607 34.1663 41.2546Z" fill="#8C95CB"/>
<path d="M27.865 46.8665L25.4034 48.245C25.1081 48.4419 24.9111 48.7373 24.9111 49.0327V56.9095C24.9111 57.4018 25.4034 57.6972 25.7973 57.4018L28.2588 56.0234C28.5542 55.8265 28.7511 55.5311 28.7511 55.2357V47.3588C28.8496 46.8665 28.2588 46.5711 27.865 46.8665Z" fill="#545D94"/>
<path d="M33.0832 43.9129L30.6217 45.2914C30.3263 45.4883 30.1294 45.7837 30.1294 46.079V53.956C30.1294 54.4483 30.6217 54.7437 31.0155 54.4483L33.4771 53.0698C33.7725 52.8729 33.9694 52.5775 33.9694 52.2821V44.4052C34.0678 43.9129 33.5755 43.6175 33.0832 43.9129Z" fill="#545D94"/>
</g>
</svg>